HIERARCHY
ROOT hip
{
  OFFSET 58.7404 55.6081 -39.6689
  CHANNELS 6 Xposition Yposition Zposition Zrotation Xrotation Yrotation
  JOINT abdomen
  {
    OFFSET 0 20.6881 -0.73152
    CHANNELS 3 Zrotation Xrotation Yrotation
    JOINT chest
    {
      OFFSET 0 11.7043 -0.48768
      CHANNELS 3 Zrotation Xrotation Yrotation
      JOINT neck
      {
        OFFSET 0 22.1894 -2.19456
        CHANNELS 3 Zrotation Xrotation Yrotation
        JOINT head
        {
          OFFSET -0.24384 7.07133 1.2192
          CHANNELS 3 Zrotation Xrotation Yrotation
          JOINT leftEye
          {
            OFFSET 4.14528 8.04674 8.04672
            CHANNELS 3 Zrotation Xrotation Yrotation
            End Site
            {
              OFFSET 1 0 0
            }
          }
          JOINT rightEye
          {
            OFFSET -3.6576 8.04674 8.04672
            CHANNELS 3 Zrotation Xrotation Yrotation
            End Site
            {
              OFFSET 1 0 0
            }
          }
        }
      }
      JOINT rCollar
      {
        OFFSET -2.68224 19.2634 -4.8768
        CHANNELS 3 Zrotation Xrotation Yrotation
        JOINT rShldr
        {
          OFFSET -8.77824 -1.95073 1.46304
          CHANNELS 3 Zrotation Xrotation Yrotation
          JOINT rForeArm
          {
            OFFSET -28.1742 -1.7115 0.48768
            CHANNELS 3 Zrotation Xrotation Yrotation
            JOINT rHand
            {
              OFFSET -22.5879 0.773209 7.07136
              CHANNELS 3 Zrotation Xrotation Yrotation
              JOINT rThumb1
              {
                OFFSET -1.2192 -0.487915 3.41376
                CHANNELS 3 Zrotation Xrotation Yrotation
                JOINT rThumb2
                {
                  OFFSET -3.37035 -0.52449 3.41376
                  CHANNELS 3 Zrotation Xrotation Yrotation
                  End Site
                  {
                    OFFSET -1.78271 -1.18214 1.43049
                  }
                }
              }
              JOINT rIndex1
              {
                OFFSET -7.75947 0.938293 5.60832
                CHANNELS 3 Zrotation Xrotation Yrotation
                JOINT rIndex2
                {
                  OFFSET -2.54057 -0.884171 1.56538
                  CHANNELS 3 Zrotation Xrotation Yrotation
                  End Site
                  {
                    OFFSET -1.62519 -0.234802 1.16502
                  }
                }
              }
              JOINT rMid1
              {
                OFFSET -8.24714 1.18213 3.41376
                CHANNELS 3 Zrotation Xrotation Yrotation
                JOINT rMid2
                {
                  OFFSET -3.10165 -0.590103 1.0647
                  CHANNELS 3 Zrotation Xrotation Yrotation
                  End Site
                  {
                    OFFSET -2.48547 -0.328903 0.83742
                  }
                }
              }
              JOINT rRing1
              {
                OFFSET -8.82822 0.546677 1.51678
                CHANNELS 3 Zrotation Xrotation Yrotation
                JOINT rRing2
                {
                  OFFSET -2.60934 -0.819778 -0.0198488
                  CHANNELS 3 Zrotation Xrotation Yrotation
                  End Site
                  {
                    OFFSET -2.33842 -0.294052 0.168128
                  }
                }
              }
              JOINT rPinky1
              {
                OFFSET -8.27202 -0.0477905 -0.4584
                CHANNELS 3 Zrotation Xrotation Yrotation
                JOINT rPinky2
                {
                  OFFSET -1.82734 -0.647385 -0.700984
                  CHANNELS 3 Zrotation Xrotation Yrotation
                  End Site
                  {
                    OFFSET -1.69225 -0.51767 -0.607171
                  }
                }
              }
            }
          }
        }
      }
      JOINT lCollar
      {
        OFFSET 2.68224 19.2634 -4.8768
        CHANNELS 3 Zrotation Xrotation Yrotation
        JOINT lShldr
        {
          OFFSET 8.77824 -1.95073 1.46304
          CHANNELS 3 Zrotation Xrotation Yrotation
          JOINT lForeArm
          {
            OFFSET 28.1742 -1.7115 0.48768
            CHANNELS 3 Zrotation Xrotation Yrotation
            JOINT lHand
            {
              OFFSET 22.5879 0.773209 7.07136
              CHANNELS 3 Zrotation Xrotation Yrotation
              JOINT lThumb1
              {
                OFFSET 1.2192 -0.487915 3.41376
                CHANNELS 3 Zrotation Xrotation Yrotation
                JOINT lThumb2
                {
                  OFFSET 3.37035 -0.52449 3.41376
                  CHANNELS 3 Zrotation Xrotation Yrotation
                  End Site
                  {
                    OFFSET 1.78271 -1.18214 1.43049
                  }
                }
              }
              JOINT lIndex1
              {
                OFFSET 7.75947 0.938293 5.60832
                CHANNELS 3 Zrotation Xrotation Yrotation
                JOINT lIndex2
                {
                  OFFSET 2.54057 -0.884171 1.56538
                  CHANNELS 3 Zrotation Xrotation Yrotation
                  End Site
                  {
                    OFFSET 1.62519 -0.234802 1.16502
                  }
                }
              }
              JOINT lMid1
              {
                OFFSET 8.24714 1.18213 3.41376
                CHANNELS 3 Zrotation Xrotation Yrotation
                JOINT lMid2
                {
                  OFFSET 3.10165 -0.590103 1.0647
                  CHANNELS 3 Zrotation Xrotation Yrotation
                  End Site
                  {
                    OFFSET 2.48547 -0.328903 0.83742
                  }
                }
              }
              JOINT lRing1
              {
                OFFSET 8.82822 0.546677 1.51678
                CHANNELS 3 Zrotation Xrotation Yrotation
                JOINT lRing2
                {
                  OFFSET 2.60934 -0.819778 -0.0198488
                  CHANNELS 3 Zrotation Xrotation Yrotation
                  End Site
                  {
                    OFFSET 2.33842 -0.294052 0.168128
                  }
                }
              }
              JOINT lPinky1
              {
                OFFSET 8.27202 -0.0477905 -0.4584
                CHANNELS 3 Zrotation Xrotation Yrotation
                JOINT lPinky2
                {
                  OFFSET 1.82734 -0.647385 -0.700984
                  CHANNELS 3 Zrotation Xrotation Yrotation
                  End Site
                  {
                    OFFSET 1.69225 -0.51767 -0.607171
                  }
                }
              }
            }
          }
        }
      }
    }
  }
  JOINT rButtock
  {
    OFFSET -8.77824 4.35084 1.2192
    CHANNELS 3 Zrotation Xrotation Yrotation
    JOINT rThigh
    {
      OFFSET 0 -1.70687 -2.19456
      CHANNELS 3 Zrotation Xrotation Yrotation
      JOINT rShin
      {
        OFFSET 0 -36.8199 0.73152
        CHANNELS 3 Zrotation Xrotation Yrotation
        JOINT rFoot
        {
          OFFSET 0.73152 -45.1104 -5.12064
          CHANNELS 3 Zrotation Xrotation Yrotation
          End Site
          {
            OFFSET -1.1221 -3.69964 12.103
          }
        }
      }
    }
  }
  JOINT lButtock
  {
    OFFSET 8.77824 4.35084 1.2192
    CHANNELS 3 Zrotation Xrotation Yrotation
    JOINT lThigh
    {
      OFFSET 0 -1.70687 -2.19456
      CHANNELS 3 Zrotation Xrotation Yrotation
      JOINT lShin
      {
        OFFSET 0 -36.8199 0.73152
        CHANNELS 3 Zrotation Xrotation Yrotation
        JOINT lFoot
        {
          OFFSET -0.73152 -45.1104 -5.12064
          CHANNELS 3 Zrotation Xrotation Yrotation
          End Site
          {
            OFFSET 1.1221 -3.69964 12.103
          }
        }
      }
    }
  }
}
MOTION
Frames:	6
Frame Time:	0.00833333
59.353 55.1538 -39.1729 3.37836 1.59425 2.01583 -5.46841 21.463 3.83819 5.26783 1.65351 0.330929 -1.7212 5.63302 0.891405 1.57973 12.1347 1.9481 -0 0 0 -0 0 0 -1.03305e-013 3.18948e-015 8.19987e-014 -17.8739 5.82522 57.4411 -22.9187 -17.202 46.3507 -0.0124884 3.18893 0.448642 1.46719e-009 5.33538e-009 3.02016e-010 2.53912e-009 9.23026e-009 5.14792e-010 1.46719e-009 5.33538e-009 3.02016e-010 7.73091 5.47488 0.417314 1.46718e-009 5.33538e-009 3.02022e-010 2.90554 0.965183 0.102902 1.46719e-009 5.33538e-009 3.02013e-010 10.2786 0.731801 0.0259123 1.46718e-009 5.33538e-009 3.02019e-010 2.22167 -0.733487 -0.20892 -1.03438e-013 3.17124e-015 8.17502e-014 15.9915 1.79092 -64.271 21.2919 -14.729 -41.9168 0.492702 19.5458 -2.85993 -4.47918e-010 4.09496e-009 -1.25859e-009 -7.9455e-010 7.1627e-009 -2.1691e-009 -4.47919e-010 4.09497e-009 -1.25858e-009 -7.73091 5.47488 -0.417314 -4.47916e-010 4.09497e-009 -1.25859e-009 -2.90554 0.965183 -0.102902 -4.47923e-010 4.09497e-009 -1.25859e-009 -10.2786 0.731801 -0.0259123 -4.47917e-010 4.09497e-009 -1.2586e-009 -2.22167 -0.733487 0.20892 -2.03217e-016 0 -3.88251e-019 -16.4576 -51.09 -11.0381 0.0408122 9.36844 0.457147 0.337633 -1.27797 -0.0553525 2.03217e-016 0 3.88251e-019 2.60582 -48.2481 -1.19865 0.0220414 -2.0767 0.1895 -0.175583 4.08071 -0.0398531 
58.6722 55.0531 -38.9508 3.25657 1.56772 1.99851 -5.32859 21.4972 3.84768 5.25404 1.65912 0.339869 -1.72366 5.69326 0.842187 1.59119 11.9597 1.85228 -0 0 0 -0 0 0 -8.81692e-014 1.98859e-014 8.59915e-014 -17.7963 5.79345 57.4426 -22.9232 -17.2095 46.3638 -0.0131885 3.28351 0.461974 9.99176e-010 3.42936e-009 8.97485e-011 1.72921e-009 5.93277e-009 1.49547e-010 9.99174e-010 3.42936e-009 8.97482e-011 7.73091 5.47488 0.417314 9.99173e-010 3.42936e-009 8.97538e-011 2.90554 0.965183 0.102902 9.99178e-010 3.42936e-009 8.97471e-011 10.2786 0.731801 0.0259123 9.99171e-010 3.42936e-009 8.97543e-011 2.22167 -0.733487 -0.20892 -8.83057e-014 1.98707e-014 8.57585e-014 16.032 1.79642 -64.282 21.3039 -14.7458 -41.9479 0.492756 19.5465 -2.86005 -1.96712e-010 2.26004e-009 -7.89126e-010 -3.52724e-010 3.96212e-009 -1.36194e-009 -1.96712e-010 2.26005e-009 -7.89119e-010 -7.73091 5.47488 -0.417314 -1.9671e-010 2.26005e-009 -7.89123e-010 -2.90554 0.965183 -0.102902 -1.96715e-010 2.26005e-009 -7.89121e-010 -10.2786 0.731801 -0.0259123 -1.96712e-010 2.26005e-009 -7.89132e-010 -2.22167 -0.733487 0.20892 -2.03217e-016 0 -3.88251e-019 -16.2182 -51.0991 -10.9395 0.0409835 9.37402 0.458731 0.337642 -1.28296 -0.0554202 2.03217e-016 0 3.88251e-019 2.83068 -48.2717 -1.10719 0.0219695 -2.07671 0.188864 -0.175835 4.08233 -0.0398393 
58.8088 55.0726 -39.0126 2.79946 1.44807 1.92102 -4.82617 21.6113 3.87751 5.18959 1.68412 0.37195 -1.70015 5.74705 0.792402 1.56158 11.763 1.7551 -0 0 0 -0 0 0 -5.13098e-014 5.16874e-014 9.03725e-014 -17.7359 5.74976 57.437 -22.9307 -17.2217 46.3851 -0.0144708 3.44221 0.484354 1.01509e-011 -5.36071e-010 -3.45594e-010 1.78221e-011 -9.26898e-010 -5.99484e-010 1.01499e-011 -5.36071e-010 -3.45595e-010 7.73091 5.47488 0.417314 1.01488e-011 -5.36068e-010 -3.45591e-010 2.90554 0.965183 0.102902 1.01524e-011 -5.36068e-010 -3.45592e-010 10.2786 0.731801 0.0259123 1.0146e-011 -5.36067e-010 -3.45584e-010 2.22167 -0.733487 -0.20892 -5.14434e-014 5.16803e-014 9.01737e-014 16.0673 1.79203 -64.2603 21.3157 -14.7623 -41.9784 0.495762 19.6033 -2.86905 3.15691e-010 -1.51104e-009 1.78142e-010 5.48469e-010 -2.61484e-009 3.01038e-010 3.15693e-010 -1.51103e-009 1.78149e-010 -7.73091 5.47488 -0.417314 3.15694e-010 -1.51103e-009 1.78144e-010 -2.90554 0.965183 -0.102902 3.1569e-010 -1.51103e-009 1.78145e-010 -10.2786 0.731801 -0.0259123 3.15691e-010 -1.51103e-009 1.78137e-010 -2.22167 -0.733487 0.20892 -2.03217e-016 0 -3.88251e-019 -15.3174 -51.0406 -10.5468 0.0416438 9.39631 0.464801 0.338663 -1.30236 -0.0557831 2.03217e-016 0 3.88251e-019 3.66445 -48.2679 -0.757284 0.0216968 -2.07675 0.186453 -0.177373 4.08852 -0.0397009 
58.9265 55.061 -39.0305 2.26796 1.29949 1.82739 -4.24735 21.7502 3.91589 5.11452 1.71385 0.410039 -1.67138 5.79819 0.744757 1.53145 11.5551 1.66148 -0 0 0 -0 0 0 -1.35116e-014 8.3091e-014 9.7611e-014 -17.6936 5.70219 57.4311 -22.9385 -17.2346 46.4077 -0.0158491 3.59738 0.506247 -9.57305e-010 -4.40227e-009 -7.70789e-010 -1.65617e-009 -7.61467e-009 -1.33111e-009 -9.57304e-010 -4.40227e-009 -7.70791e-010 7.73091 5.47488 0.417314 -9.57306e-010 -4.40227e-009 -7.70788e-010 2.90554 0.965183 0.102902 -9.57304e-010 -4.40227e-009 -7.70784e-010 10.2786 0.731801 0.0259123 -9.5731e-010 -4.40227e-009 -7.70775e-010 2.22167 -0.733487 -0.20892 -1.36424e-014 8.30927e-014 9.74464e-014 16.1002 1.78335 -64.2292 21.3279 -14.7795 -42.01 0.499814 19.6794 -2.88113 7.95718e-010 -5.1327e-009 1.12487e-009 1.3933e-009 -8.9324e-009 1.92895e-009 7.95721e-010 -5.13269e-009 1.12488e-009 -7.73091 5.47488 -0.417314 7.95722e-010 -5.13269e-009 1.12487e-009 -2.90554 0.965183 -0.102902 7.9572e-010 -5.13269e-009 1.12487e-009 -10.2786 0.731801 -0.0259123 7.95719e-010 -5.13269e-009 1.12487e-009 -2.22167 -0.733487 0.20892 -2.03217e-016 0 -3.88251e-019 -14.2636 -50.956 -10.0808 0.0424091 9.4225 0.471887 0.339883 -1.32505 -0.0562102 2.03217e-016 0 3.88251e-019 4.63593 -48.2459 -0.347532 0.0213826 -2.0768 0.183674 -0.179182 4.09572 -0.0395371 
58.9598 55.0691 -39.0905 1.92364 1.1862 1.76161 -3.87814 21.8583 3.95093 5.06893 1.73369 0.437003 -1.65806 5.85046 0.701956 1.5415 11.3467 1.5763 -0 0 0 -0 0 0 4.44056e-015 9.85937e-014 1.10176e-013 -17.6702 5.65882 57.4317 -22.9444 -17.2442 46.4245 -0.0166504 3.68137 0.518103 -1.36061e-009 -6.0106e-009 -9.52614e-010 -2.3539e-009 -1.03965e-008 -1.64416e-009 -1.36061e-009 -6.01059e-009 -9.52617e-010 7.73091 5.47488 0.417314 -1.36061e-009 -6.01059e-009 -9.52614e-010 2.90554 0.965183 0.102902 -1.36061e-009 -6.01059e-009 -9.52607e-010 10.2786 0.731801 0.0259123 -1.36061e-009 -6.01059e-009 -9.52598e-010 2.22167 -0.733487 -0.20892 4.30622e-015 9.86003e-014 1.10027e-013 16.1336 1.77601 -64.212 21.3411 -14.7981 -42.0442 0.502965 19.7382 -2.89047 9.49798e-010 -6.51932e-009 1.53272e-009 1.66605e-009 -1.13548e-008 2.6309e-009 9.49801e-010 -6.51931e-009 1.53273e-009 -7.73091 5.47488 -0.417314 9.49802e-010 -6.51931e-009 1.53272e-009 -2.90554 0.965183 -0.102902 9.498e-010 -6.51931e-009 1.53272e-009 -10.2786 0.731801 -0.0259123 9.49799e-010 -6.51931e-009 1.53271e-009 -2.22167 -0.733487 0.20892 -2.03217e-016 0 -3.88251e-019 -13.5622 -50.8897 -9.76049 0.0429052 9.43977 0.476519 0.340488 -1.33992 -0.0564702 2.03217e-016 0 3.88251e-019 5.2744 -48.2171 -0.076221 0.0211859 -2.07683 0.181934 -0.180244 4.10038 -0.0394472 
58.9591 55.06 -39.064 1.87635 1.12257 1.73775 -3.84426 21.9218 3.98687 5.07169 1.74247 0.447636 -1.66359 5.91093 0.664178 1.60856 11.1272 1.49888 -0 0 0 -0 0 0 -9.40528e-015 9.27799e-014 1.39775e-013 -17.6719 5.61873 57.4393 -22.9464 -17.2476 46.4305 -0.0164446 3.65842 0.514865 -8.91557e-010 -4.13201e-009 -7.60861e-010 -1.54193e-009 -7.14589e-009 -1.31483e-009 -8.91555e-010 -4.13201e-009 -7.60865e-010 7.73091 5.47488 0.417314 -8.91559e-010 -4.13201e-009 -7.60861e-010 2.90554 0.965183 0.102902 -8.91557e-010 -4.13201e-009 -7.60854e-010 10.2786 0.731801 0.0259123 -8.91561e-010 -4.13201e-009 -7.60846e-010 2.22167 -0.733487 -0.20892 -9.55873e-015 9.27851e-014 1.39615e-013 16.1719 1.76727 -64.2185 21.3563 -14.8196 -42.0837 0.504647 19.7695 -2.89543 5.95679e-010 -4.44661e-009 1.10875e-009 1.04695e-009 -7.74817e-009 1.9034e-009 5.95679e-010 -4.4466e-009 1.10876e-009 -7.73091 5.47488 -0.417314 5.95682e-010 -4.44661e-009 1.10875e-009 -2.90554 0.965183 -0.102902 5.95679e-010 -4.44661e-009 1.10875e-009 -10.2786 0.731801 -0.0259123 5.95681e-010 -4.4466e-009 1.10874e-009 -2.22167 -0.733487 0.20892 -2.03217e-016 0 -3.88251e-019 -13.408 -50.848 -9.66048 0.0429881 9.44301 0.477313 0.340144 -1.34252 -0.0564699 2.03217e-016 0 3.88251e-019 5.39088 -48.1724 -0.0189057 0.0211765 -2.07683 0.181851 -0.180151 4.10109 -0.0394713 
